<mxfile host="Electron" modified="2025-05-14T15:39:44.481Z" agent="Mozilla/5.0 (X11; Linux x86_64) AppleWebKit/537.36 (KHTML, like Gecko) draw.io/24.2.5 Chrome/120.0.6099.109 Electron/28.1.0 Safari/537.36" etag="q4Q5oky2_5M9KXiBl8cn" version="24.2.5" type="device">
  <diagram name="Seite-1" id="-HrA60lX8eTjjvNQg45P">
    <mxGraphModel dx="574" dy="340" grid="1" gridSize="10" guides="1" tooltips="1" connect="1" arrows="1" fold="1" page="1" pageScale="1" pageWidth="1169" pageHeight="827" math="0" shadow="0">
      <root>
        <mxCell id="0" />
        <mxCell id="1" parent="0" />
        <mxCell id="_eSkiVWzGFqFjlS3VIde-1" value="" style="shape=folder;fontStyle=1;spacingTop=10;tabWidth=200;tabHeight=20;tabPosition=left;html=1;whiteSpace=wrap;verticalAlign=top;align=left;fillColor=none;" parent="1" vertex="1">
          <mxGeometry x="670" y="180" width="210" height="280" as="geometry" />
        </mxCell>
        <mxCell id="_eSkiVWzGFqFjlS3VIde-2" value="com.future.contactapp.persintance" style="text;html=1;align=center;verticalAlign=middle;whiteSpace=wrap;rounded=0;" parent="1" vertex="1">
          <mxGeometry x="670" y="180" width="190" height="20" as="geometry" />
        </mxCell>
        <mxCell id="_eSkiVWzGFqFjlS3VIde-3" value="ConnectionManager" style="html=1;whiteSpace=wrap;" parent="1" vertex="1">
          <mxGeometry x="710" y="220" width="130" height="50" as="geometry" />
        </mxCell>
        <mxCell id="_eSkiVWzGFqFjlS3VIde-7" value="" style="edgeStyle=orthogonalEdgeStyle;rounded=0;orthogonalLoop=1;jettySize=auto;html=1;endArrow=open;endFill=0;endSize=10;" parent="1" source="_eSkiVWzGFqFjlS3VIde-4" target="_eSkiVWzGFqFjlS3VIde-3" edge="1">
          <mxGeometry relative="1" as="geometry" />
        </mxCell>
        <mxCell id="_eSkiVWzGFqFjlS3VIde-4" value="Broker" style="html=1;whiteSpace=wrap;" parent="1" vertex="1">
          <mxGeometry x="710" y="300" width="130" height="50" as="geometry" />
        </mxCell>
        <mxCell id="_eSkiVWzGFqFjlS3VIde-6" style="edgeStyle=orthogonalEdgeStyle;rounded=0;orthogonalLoop=1;jettySize=auto;html=1;entryX=0.5;entryY=1;entryDx=0;entryDy=0;endArrow=block;endFill=0;endSize=10;" parent="1" source="_eSkiVWzGFqFjlS3VIde-5" target="_eSkiVWzGFqFjlS3VIde-4" edge="1">
          <mxGeometry relative="1" as="geometry" />
        </mxCell>
        <mxCell id="sToo51USwYo4NytJsff4-5" style="edgeStyle=orthogonalEdgeStyle;rounded=0;orthogonalLoop=1;jettySize=auto;html=1;entryX=1;entryY=0.5;entryDx=0;entryDy=0;endArrow=open;endFill=0;endSize=10;" edge="1" parent="1" source="_eSkiVWzGFqFjlS3VIde-5" target="sToo51USwYo4NytJsff4-4">
          <mxGeometry relative="1" as="geometry" />
        </mxCell>
        <mxCell id="_eSkiVWzGFqFjlS3VIde-5" value="ContactBroker" style="html=1;whiteSpace=wrap;" parent="1" vertex="1">
          <mxGeometry x="710" y="389" width="130" height="50" as="geometry" />
        </mxCell>
        <mxCell id="sToo51USwYo4NytJsff4-7" value="" style="group" vertex="1" connectable="0" parent="1">
          <mxGeometry x="390" y="60" width="210" height="190" as="geometry" />
        </mxCell>
        <mxCell id="sToo51USwYo4NytJsff4-8" value="" style="shape=folder;fontStyle=1;spacingTop=10;tabWidth=200;tabHeight=20;tabPosition=left;html=1;whiteSpace=wrap;verticalAlign=top;align=left;fillColor=none;" vertex="1" parent="sToo51USwYo4NytJsff4-7">
          <mxGeometry width="210" height="190" as="geometry" />
        </mxCell>
        <mxCell id="sToo51USwYo4NytJsff4-9" value="com.future.contactapp.controller" style="text;html=1;align=center;verticalAlign=middle;whiteSpace=wrap;rounded=0;" vertex="1" parent="sToo51USwYo4NytJsff4-7">
          <mxGeometry width="190" height="22.352941176470587" as="geometry" />
        </mxCell>
        <mxCell id="sToo51USwYo4NytJsff4-10" value="Controller" style="html=1;whiteSpace=wrap;" vertex="1" parent="sToo51USwYo4NytJsff4-7">
          <mxGeometry x="40" y="110" width="130" height="50" as="geometry" />
        </mxCell>
        <mxCell id="sToo51USwYo4NytJsff4-12" value="" style="group" vertex="1" connectable="0" parent="1">
          <mxGeometry x="388" y="270" width="210" height="190" as="geometry" />
        </mxCell>
        <mxCell id="sToo51USwYo4NytJsff4-2" value="" style="shape=folder;fontStyle=1;spacingTop=10;tabWidth=200;tabHeight=20;tabPosition=left;html=1;whiteSpace=wrap;verticalAlign=top;align=left;fillColor=none;" vertex="1" parent="sToo51USwYo4NytJsff4-12">
          <mxGeometry width="210" height="190" as="geometry" />
        </mxCell>
        <mxCell id="sToo51USwYo4NytJsff4-3" value="com.future.contactapp.model" style="text;html=1;align=center;verticalAlign=middle;whiteSpace=wrap;rounded=0;" vertex="1" parent="sToo51USwYo4NytJsff4-12">
          <mxGeometry width="190" height="22.352941176470587" as="geometry" />
        </mxCell>
        <mxCell id="sToo51USwYo4NytJsff4-13" value="Model" style="html=1;whiteSpace=wrap;" vertex="1" parent="sToo51USwYo4NytJsff4-12">
          <mxGeometry x="40" y="40" width="130" height="50" as="geometry" />
        </mxCell>
        <mxCell id="sToo51USwYo4NytJsff4-4" value="Contact" style="html=1;whiteSpace=wrap;" vertex="1" parent="1">
          <mxGeometry x="428" y="389" width="130" height="50" as="geometry" />
        </mxCell>
        <mxCell id="sToo51USwYo4NytJsff4-11" style="edgeStyle=orthogonalEdgeStyle;rounded=0;orthogonalLoop=1;jettySize=auto;html=1;entryX=0;entryY=0.5;entryDx=0;entryDy=0;endArrow=open;endFill=0;endSize=10;" edge="1" parent="1" source="sToo51USwYo4NytJsff4-10" target="sToo51USwYo4NytJsff4-4">
          <mxGeometry relative="1" as="geometry">
            <mxPoint x="230" y="350" as="targetPoint" />
            <Array as="points">
              <mxPoint x="360" y="195" />
              <mxPoint x="360" y="414" />
            </Array>
          </mxGeometry>
        </mxCell>
        <mxCell id="sToo51USwYo4NytJsff4-14" style="edgeStyle=orthogonalEdgeStyle;rounded=0;orthogonalLoop=1;jettySize=auto;html=1;endArrow=open;endFill=0;endSize=10;exitX=1.003;exitY=0.608;exitDx=0;exitDy=0;exitPerimeter=0;" edge="1" parent="1" source="sToo51USwYo4NytJsff4-10" target="sToo51USwYo4NytJsff4-13">
          <mxGeometry relative="1" as="geometry">
            <mxPoint x="620" y="330" as="targetPoint" />
            <mxPoint x="610" y="200" as="sourcePoint" />
            <Array as="points">
              <mxPoint x="650" y="200" />
              <mxPoint x="650" y="330" />
            </Array>
          </mxGeometry>
        </mxCell>
      </root>
    </mxGraphModel>
  </diagram>
</mxfile>
